<?xml version="1.0" encoding="UTF-8" standalone="no"?>
<svg
   height="128px"
   viewBox="0 0 128 128"
   width="128px"
   version="1.1"
   id="svg193"
   sodipodi:docname="app.drey.Blurble.Devel2.svg"
   inkscape:version="1.2.2 (b0a8486541, 2022-12-01)"
   xmlns:inkscape="http://www.inkscape.org/namespaces/inkscape"
   xmlns:sodipodi="http://sodipodi.sourceforge.net/DTD/sodipodi-0.dtd"
   xmlns:xlink="http://www.w3.org/1999/xlink"
   xmlns="http://www.w3.org/2000/svg"
   xmlns:svg="http://www.w3.org/2000/svg">
  <defs
     id="defs197" />
  <sodipodi:namedview
     id="namedview195"
     pagecolor="#ffffff"
     bordercolor="#000000"
     borderopacity="0.25"
     inkscape:showpageshadow="2"
     inkscape:pageopacity="0.0"
     inkscape:pagecheckerboard="0"
     inkscape:deskcolor="#d1d1d1"
     showgrid="false"
     inkscape:zoom="2.6074563"
     inkscape:cx="69.608071"
     inkscape:cy="39.118585"
     inkscape:window-width="1680"
     inkscape:window-height="981"
     inkscape:window-x="0"
     inkscape:window-y="0"
     inkscape:window-maximized="1"
     inkscape:current-layer="svg193" />
  <linearGradient
     id="a"
     gradientTransform="matrix(0.232143 0 0 0.328947 -8.56691 263.826965)"
     gradientUnits="userSpaceOnUse"
     x1="88.595886"
     x2="536.595886"
     y1="-449.394012"
     y2="-449.394012">
    <stop
       offset="0"
       stop-color="#c0bfbc"
       id="stop2" />
    <stop
       offset="0.0384615"
       stop-color="#f6f5f4"
       id="stop4" />
    <stop
       offset="0.0768555"
       stop-color="#c0bfbc"
       id="stop6" />
    <stop
       offset="0.923077"
       stop-color="#c0bfbc"
       id="stop8" />
    <stop
       offset="0.961538"
       stop-color="#f6f5f4"
       id="stop10" />
    <stop
       offset="1"
       stop-color="#c0bfbc"
       id="stop12" />
  </linearGradient>
  <linearGradient
     id="b"
     gradientUnits="userSpaceOnUse">
    <stop
       offset="0"
       stop-opacity="0.34902"
       id="stop15" />
    <stop
       offset="0.125"
       stop-opacity="0.14902"
       id="stop17" />
    <stop
       offset="0.25"
       stop-opacity="0.34902"
       id="stop19" />
    <stop
       offset="0.75"
       stop-opacity="0.34902"
       id="stop21" />
    <stop
       offset="0.875"
       stop-opacity="0.14902"
       id="stop23" />
    <stop
       offset="1"
       stop-opacity="0.34902"
       id="stop25" />
  </linearGradient>
  <linearGradient
     id="c"
     x1="51.999998"
     x2="75.999998"
     xlink:href="#b"
     y1="65.999996"
     y2="65.999996" />
  <linearGradient
     id="d"
     x1="80"
     x2="104"
     xlink:href="#b"
     y1="65.999996"
     y2="65.999996" />
  <linearGradient
     id="e"
     x1="24"
     x2="48"
     xlink:href="#b"
     y1="66"
     y2="66" />
  <linearGradient
     id="f"
     x1="51.999998"
     x2="75.999998"
     xlink:href="#b"
     y1="38"
     y2="38" />
  <linearGradient
     id="g"
     x1="80"
     x2="104"
     xlink:href="#b"
     y1="38"
     y2="38" />
  <linearGradient
     id="h"
     x1="24"
     x2="48"
     xlink:href="#b"
     y1="38"
     y2="38" />
  <linearGradient
     id="i"
     x1="51.999998"
     x2="75.999998"
     xlink:href="#b"
     y1="94"
     y2="94" />
  <linearGradient
     id="j"
     x1="80"
     x2="104"
     xlink:href="#b"
     y1="94"
     y2="94" />
  <linearGradient
     id="k"
     x1="24"
     x2="48"
     xlink:href="#b"
     y1="94"
     y2="94" />
  <clipPath
     id="l">
    <rect
       height="128"
       width="128"
       id="rect37" />
  </clipPath>
  <clipPath
     id="m">
    <rect
       height="128"
       width="128"
       id="rect40" />
  </clipPath>
  <filter
     id="n"
     height="1"
     width="1"
     x="0"
     y="0">
    <feColorMatrix
       in="SourceGraphic"
       type="matrix"
       values="0 0 0 0 1 0 0 0 0 1 0 0 0 0 1 0 0 0 1 0"
       id="feColorMatrix43" />
  </filter>
  <mask
     id="o">
    <g
       clip-path="url(#m)"
       filter="url(#n)"
       id="g106">
      <g
         clip-path="url(#l)"
         id="g104">
        <path
           d="m 20 16 h 88 c 4.417969 0 8 3.582031 8 8 v 84 c 0 4.417969 -3.582031 8 -8 8 h -88 c -4.417969 0 -8 -3.582031 -8 -8 v -84 c 0 -4.417969 3.582031 -8 8 -8 z m 0 0"
           fill="url(#a)"
           id="path46" />
        <path
           d="m 20 12 h 88 c 4.417969 0 8 3.582031 8 8 v 80 c 0 4.417969 -3.582031 8 -8 8 h -88 c -4.417969 0 -8 -3.582031 -8 -8 v -80 c 0 -4.417969 3.582031 -8 8 -8 z m 0 0"
           fill="#f6f5f4"
           id="path48" />
        <path
           d="m 58 48 h 12 c 3.3125 0 6 2.6875 6 6 v 12 c 0 3.3125 -2.6875 6 -6 6 h -12 c -3.3125 0 -6 -2.6875 -6 -6 v -12 c 0 -3.3125 2.6875 -6 6 -6 z m 0 0"
           fill="#9a9996"
           id="path50" />
        <path
           d="m 58 76 h 12 c 3.3125 0 6 2.6875 6 6 v 12 c 0 3.3125 -2.6875 6 -6 6 h -12 c -3.3125 0 -6 -2.6875 -6 -6 v -12 c 0 -3.3125 2.6875 -6 6 -6 z m 0 0"
           fill="#57e389"
           id="path52" />
        <path
           d="m 30 76 h 12 c 3.3125 0 6 2.6875 6 6 v 12 c 0 3.3125 -2.6875 6 -6 6 h -12 c -3.3125 0 -6 -2.6875 -6 -6 v -12 c 0 -3.3125 2.6875 -6 6 -6 z m 0 0"
           fill="#57e389"
           id="path54" />
        <path
           d="m 86 48 h 12 c 3.3125 0 6 2.6875 6 6 v 12 c 0 3.3125 -2.6875 6 -6 6 h -12 c -3.3125 0 -6 -2.6875 -6 -6 v -12 c 0 -3.3125 2.6875 -6 6 -6 z m 0 0"
           fill="#f5c211"
           id="path56" />
        <path
           d="m 30 20 h 12 c 3.3125 0 6 2.6875 6 6 v 12 c 0 3.3125 -2.6875 6 -6 6 h -12 c -3.3125 0 -6 -2.6875 -6 -6 v -12 c 0 -3.3125 2.6875 -6 6 -6 z m 0 0"
           fill="#9a9996"
           id="path58" />
        <path
           d="m 52 62 v 4 c 0 3.324219 2.675781 6 6 6 h 12 c 3.324219 0 6 -2.675781 6 -6 v -4 c 0 3.324219 -2.675781 6 -6 6 h -12 c -3.324219 0 -6 -2.675781 -6 -6 z m 0 0"
           fill="url(#c)"
           id="path60" />
        <path
           d="m 80 62 v 4 c 0 3.324219 2.675781 6 6 6 h 12 c 3.324219 0 6 -2.675781 6 -6 v -4 c 0 3.324219 -2.675781 6 -6 6 h -12 c -3.324219 0 -6 -2.675781 -6 -6 z m 0 0"
           fill="url(#d)"
           id="path62" />
        <path
           d="m 58 20 h 12 c 3.3125 0 6 2.6875 6 6 v 12 c 0 3.3125 -2.6875 6 -6 6 h -12 c -3.3125 0 -6 -2.6875 -6 -6 v -12 c 0 -3.3125 2.6875 -6 6 -6 z m 0 0"
           fill="#f5c211"
           id="path64" />
        <path
           d="m 86 20 h 12 c 3.3125 0 6 2.6875 6 6 v 12 c 0 3.3125 -2.6875 6 -6 6 h -12 c -3.3125 0 -6 -2.6875 -6 -6 v -12 c 0 -3.3125 2.6875 -6 6 -6 z m 0 0"
           fill="#9a9996"
           id="path66" />
        <path
           d="m 30 48 h 12 c 3.3125 0 6 2.6875 6 6 v 12 c 0 3.3125 -2.6875 6 -6 6 h -12 c -3.3125 0 -6 -2.6875 -6 -6 v -12 c 0 -3.3125 2.6875 -6 6 -6 z m 0 0"
           fill="#57e389"
           id="path68" />
        <path
           d="m 24 62 v 4 c 0 3.324219 2.675781 6 6 6 h 12 c 3.324219 0 6 -2.675781 6 -6 v -4 c 0 3.324219 -2.675781 6 -6 6 h -12 c -3.324219 0 -6 -2.675781 -6 -6 z m 0 0"
           fill="url(#e)"
           id="path70" />
        <path
           d="m 86 76 h 12 c 3.3125 0 6 2.6875 6 6 v 12 c 0 3.3125 -2.6875 6 -6 6 h -12 c -3.3125 0 -6 -2.6875 -6 -6 v -12 c 0 -3.3125 2.6875 -6 6 -6 z m 0 0"
           fill="#57e389"
           id="path72" />
        <path
           d="m 31.683594 35 h 2.640625 v -3.667969 h 3.148437 v 3.667969 h 2.640625 v -9.457031 h -2.640625 v 3.554687 h -3.148437 v -3.554687 h -2.640625 z m 0 0"
           fill="#ffffff"
           id="path74" />
        <path
           d="m 60.410156 35 h 6.90625 v -2.183594 h -4.265625 v -1.5625 h 3.65625 v -1.992187 h -3.65625 v -1.535157 h 4.289063 v -2.183593 h -6.929688 z m 0 0"
           fill="#ffffff"
           id="path76" />
        <path
           d="m 87.144531 25.542969 l 3.480469 6.488281 v 2.96875 h 2.550781 v -2.96875 l 3.464844 -6.488281 h -2.855469 l -1.851562 3.84375 h -0.078125 l -1.839844 -3.84375 z m 0 0"
           fill="#ffffff"
           id="path78" />
        <path
           d="m 32.796875 63 h 6.386719 v -2.234375 h -3.824219 v -7.222656 h -2.5625 z m 0 0"
           fill="#ffffff"
           id="path80" />
        <path
           d="m 63.898438 63.152344 c 2.574218 0 4.597656 -1.71875 4.597656 -4.875 c 0 -3.160156 -2.023438 -4.886719 -4.597656 -4.886719 c -2.582032 0 -4.59375 1.726563 -4.59375 4.886719 c 0 3.136718 2.011718 4.875 4.59375 4.875 z m 0 -2.285156 c -1.234376 0 -1.929688 -0.957032 -1.929688 -2.589844 c 0 -1.636719 0.695312 -2.601563 1.929688 -2.601563 c 1.246093 0 1.929687 0.964844 1.929687 2.601563 c 0 1.632812 -0.683594 2.589844 -1.929687 2.589844 z m 0 0"
           fill="#ffffff"
           id="path82" />
        <path
           d="m 88.796875 63 h 6.386719 v -2.234375 h -3.824219 v -7.222656 h -2.5625 z m 0 0"
           fill="#ffffff"
           id="path84" />
        <path
           d="m 52 34 v 4 c 0 3.324219 2.675781 6 6 6 h 12 c 3.324219 0 6 -2.675781 6 -6 v -4 c 0 3.324219 -2.675781 6 -6 6 h -12 c -3.324219 0 -6 -2.675781 -6 -6 z m 0 0"
           fill="url(#f)"
           id="path86" />
        <path
           d="m 80 34 v 4 c 0 3.324219 2.675781 6 6 6 h 12 c 3.324219 0 6 -2.675781 6 -6 v -4 c 0 3.324219 -2.675781 6 -6 6 h -12 c -3.324219 0 -6 -2.675781 -6 -6 z m 0 0"
           fill="url(#g)"
           id="path88" />
        <path
           d="m 24 34 v 4 c 0 3.324219 2.675781 6 6 6 h 12 c 3.324219 0 6 -2.675781 6 -6 v -4 c 0 3.324219 -2.675781 6 -6 6 h -12 c -3.324219 0 -6 -2.675781 -6 -6 z m 0 0"
           fill="url(#h)"
           id="path90" />
        <path
           d="m 52 90 v 4 c 0 3.324219 2.675781 6 6 6 h 12 c 3.324219 0 6 -2.675781 6 -6 v -4 c 0 3.324219 -2.675781 6 -6 6 h -12 c -3.324219 0 -6 -2.675781 -6 -6 z m 0 0"
           fill="url(#i)"
           id="path92" />
        <path
           d="m 80 90 v 4 c 0 3.324219 2.675781 6 6 6 h 12 c 3.324219 0 6 -2.675781 6 -6 v -4 c 0 3.324219 -2.675781 6 -6 6 h -12 c -3.324219 0 -6 -2.675781 -6 -6 z m 0 0"
           fill="url(#j)"
           id="path94" />
        <path
           d="m 24 90 v 4 c 0 3.324219 2.675781 6 6 6 h 12 c 3.324219 0 6 -2.675781 6 -6 v -4 c 0 3.324219 -2.675781 6 -6 6 h -12 c -3.324219 0 -6 -2.675781 -6 -6 z m 0 0"
           fill="url(#k)"
           id="path96" />
        <path
           d="m 31.800781 91 h 2.460938 l 1.625 -5.363281 h 0.027343 l 1.625 5.363281 h 2.460938 l 2.792969 -9.457031 h -2.867188 l -1.320312 5.902343 h -0.027344 l -1.546875 -5.902343 h -2.261719 l -1.546875 5.902343 h -0.027344 l -1.320312 -5.902343 h -2.867188 z m 0 0"
           fill="#ffffff"
           id="path98" />
        <path
           d="m 63.898438 91.152344 c 2.625 0 4.179687 -1.847656 4.179687 -4.875 c 0 -3.035156 -1.554687 -4.886719 -4.179687 -4.886719 c -2.621094 0 -4.175782 1.859375 -4.175782 4.886719 c 0 3.023437 1.554688 4.875 4.175782 4.875 z m 0 -2.03125 c -1.046876 0 -1.6875 -1.078125 -1.6875 -2.84375 c 0 -1.769532 0.640624 -2.855469 1.6875 -2.855469 c 1.050781 0 1.691406 1.085937 1.691406 2.855469 c 0 1.765625 -0.640625 2.84375 -1.691406 2.84375 z m 0 0"
           fill="#ffffff"
           id="path100" />
        <path
           d="m 87.800781 91 h 2.460938 l 1.625 -5.363281 h 0.027343 l 1.625 5.363281 h 2.460938 l 2.792969 -9.457031 h -2.867188 l -1.320312 5.902343 h -0.027344 l -1.546875 -5.902343 h -2.261719 l -1.546875 5.902343 h -0.027344 l -1.320312 -5.902343 h -2.867188 z m 0 0"
           fill="#ffffff"
           id="path102" />
      </g>
    </g>
  </mask>
  <mask
     id="p">
    <g
       filter="url(#n)"
       id="g111">
      <rect
         fill-opacity="0.8"
         height="128"
         width="128"
         id="rect109" />
    </g>
  </mask>
  <linearGradient
     id="q"
     gradientTransform="matrix(0 0.37 -0.98462 0 295.38501 -30.360001)"
     gradientUnits="userSpaceOnUse"
     x1="300"
     x2="428"
     y1="235"
     y2="235">
    <stop
       offset="0"
       stop-color="#f9f06b"
       id="stop114" />
    <stop
       offset="1"
       stop-color="#f5c211"
       id="stop116" />
  </linearGradient>
  <clipPath
     id="r">
    <rect
       height="128"
       width="128"
       id="rect119" />
  </clipPath>
  <clipPath
     id="s">
    <rect
       height="128"
       width="128"
       id="rect122" />
  </clipPath>
  <path
     d="m 20 16 h 88 c 4.417969 0 8 3.582031 8 8 v 84 c 0 4.417969 -3.582031 8 -8 8 h -88 c -4.417969 0 -8 -3.582031 -8 -8 v -84 c 0 -4.417969 3.582031 -8 8 -8 z m 0 0"
     fill="url(#a)"
     id="path125" />
  <path
     d="m 20 12 h 88 c 4.417969 0 8 3.582031 8 8 v 80 c 0 4.417969 -3.582031 8 -8 8 h -88 c -4.417969 0 -8 -3.582031 -8 -8 v -80 c 0 -4.417969 3.582031 -8 8 -8 z m 0 0"
     fill="#f6f5f4"
     id="path127" />
  <g
     clip-path="url(#s)"
     mask="url(#o)"
     id="g191">
    <g
       clip-path="url(#r)"
       mask="url(#p)"
       id="g189">
      <path
         d="m 128 80.640625 v 47.359375 h -128 v -47.359375 z m 0 0"
         fill="url(#q)"
         id="path185" />
      <path
         d="m 13.308594 80.640625 l 47.355468 47.359375 h 21.214844 l -47.359375 -47.359375 z m 42.421875 0 l 47.363281 47.359375 h 21.214844 l -47.363282 -47.359375 z m 42.429687 0 l 29.839844 29.839844 v -21.210938 l -8.628906 -8.628906 z m -98.160156 7.90625 v 21.214844 l 18.238281 18.238281 h 21.214844 z m 0 0"
         id="path187" />
    </g>
  </g>
  <path
     d="m 58 48 h 12 c 3.3125 0 6 2.6875 6 6 v 12 c 0 3.3125 -2.6875 6 -6 6 h -12 c -3.3125 0 -6 -2.6875 -6 -6 v -12 c 0 -3.3125 2.6875 -6 6 -6 z m 0 0"
     fill="#9a9996"
     id="path129" />
  <path
     d="m 58 76 h 12 c 3.3125 0 6 2.6875 6 6 v 12 c 0 3.3125 -2.6875 6 -6 6 h -12 c -3.3125 0 -6 -2.6875 -6 -6 v -12 c 0 -3.3125 2.6875 -6 6 -6 z m 0 0"
     fill="#57e389"
     id="path131" />
  <path
     d="m 30 76 h 12 c 3.3125 0 6 2.6875 6 6 v 12 c 0 3.3125 -2.6875 6 -6 6 h -12 c -3.3125 0 -6 -2.6875 -6 -6 v -12 c 0 -3.3125 2.6875 -6 6 -6 z m 0 0"
     fill="#57e389"
     id="path133" />
  <path
     d="m 86 48 h 12 c 3.3125 0 6 2.6875 6 6 v 12 c 0 3.3125 -2.6875 6 -6 6 h -12 c -3.3125 0 -6 -2.6875 -6 -6 v -12 c 0 -3.3125 2.6875 -6 6 -6 z m 0 0"
     fill="#f5c211"
     id="path135" />
  <path
     d="m 30 20 h 12 c 3.3125 0 6 2.6875 6 6 v 12 c 0 3.3125 -2.6875 6 -6 6 h -12 c -3.3125 0 -6 -2.6875 -6 -6 v -12 c 0 -3.3125 2.6875 -6 6 -6 z m 0 0"
     fill="#9a9996"
     id="path137" />
  <path
     d="m 52 62 v 4 c 0 3.324219 2.675781 6 6 6 h 12 c 3.324219 0 6 -2.675781 6 -6 v -4 c 0 3.324219 -2.675781 6 -6 6 h -12 c -3.324219 0 -6 -2.675781 -6 -6 z m 0 0"
     fill="url(#c)"
     id="path139" />
  <path
     d="m 80 62 v 4 c 0 3.324219 2.675781 6 6 6 h 12 c 3.324219 0 6 -2.675781 6 -6 v -4 c 0 3.324219 -2.675781 6 -6 6 h -12 c -3.324219 0 -6 -2.675781 -6 -6 z m 0 0"
     fill="url(#d)"
     id="path141" />
  <path
     d="m 58 20 h 12 c 3.3125 0 6 2.6875 6 6 v 12 c 0 3.3125 -2.6875 6 -6 6 h -12 c -3.3125 0 -6 -2.6875 -6 -6 v -12 c 0 -3.3125 2.6875 -6 6 -6 z m 0 0"
     fill="#f5c211"
     id="path143" />
  <path
     d="m 86 20 h 12 c 3.3125 0 6 2.6875 6 6 v 12 c 0 3.3125 -2.6875 6 -6 6 h -12 c -3.3125 0 -6 -2.6875 -6 -6 v -12 c 0 -3.3125 2.6875 -6 6 -6 z m 0 0"
     fill="#9a9996"
     id="path145" />
  <path
     d="m 30 48 h 12 c 3.3125 0 6 2.6875 6 6 v 12 c 0 3.3125 -2.6875 6 -6 6 h -12 c -3.3125 0 -6 -2.6875 -6 -6 v -12 c 0 -3.3125 2.6875 -6 6 -6 z m 0 0"
     fill="#57e389"
     id="path147" />
  <path
     d="m 24 62 v 4 c 0 3.324219 2.675781 6 6 6 h 12 c 3.324219 0 6 -2.675781 6 -6 v -4 c 0 3.324219 -2.675781 6 -6 6 h -12 c -3.324219 0 -6 -2.675781 -6 -6 z m 0 0"
     fill="url(#e)"
     id="path149" />
  <path
     d="m 86 76 h 12 c 3.3125 0 6 2.6875 6 6 v 12 c 0 3.3125 -2.6875 6 -6 6 h -12 c -3.3125 0 -6 -2.6875 -6 -6 v -12 c 0 -3.3125 2.6875 -6 6 -6 z m 0 0"
     fill="#57e389"
     id="path151" />
  <g
     fill="#ffffff"
     id="g165">
    <path
       d="m 31.683594 35 h 2.640625 v -3.667969 h 3.148437 v 3.667969 h 2.640625 v -9.457031 h -2.640625 v 3.554687 h -3.148437 v -3.554687 h -2.640625 z m 0 0"
       id="path153" />
    <path
       d="m 60.410156 35 h 6.90625 v -2.183594 h -4.265625 v -1.5625 h 3.65625 v -1.992187 h -3.65625 v -1.535157 h 4.289063 v -2.183593 h -6.929688 z m 0 0"
       id="path155" />
    <path
       d="m 87.144531 25.542969 l 3.480469 6.488281 v 2.96875 h 2.550781 v -2.96875 l 3.464844 -6.488281 h -2.855469 l -1.851562 3.84375 h -0.078125 l -1.839844 -3.84375 z m 0 0"
       id="path157" />
    <path
       d="m 32.796875 63 h 6.386719 v -2.234375 h -3.824219 v -7.222656 h -2.5625 z m 0 0"
       id="path159" />
    <path
       d="m 63.898438 63.152344 c 2.574218 0 4.597656 -1.71875 4.597656 -4.875 c 0 -3.160156 -2.023438 -4.886719 -4.597656 -4.886719 c -2.582032 0 -4.59375 1.726563 -4.59375 4.886719 c 0 3.136718 2.011718 4.875 4.59375 4.875 z m 0 -2.285156 c -1.234376 0 -1.929688 -0.957032 -1.929688 -2.589844 c 0 -1.636719 0.695312 -2.601563 1.929688 -2.601563 c 1.246093 0 1.929687 0.964844 1.929687 2.601563 c 0 1.632812 -0.683594 2.589844 -1.929687 2.589844 z m 0 0"
       id="path161" />
    <path
       d="m 88.796875 63 h 6.386719 v -2.234375 h -3.824219 v -7.222656 h -2.5625 z m 0 0"
       id="path163" />
  </g>
  <path
     d="m 52 34 v 4 c 0 3.324219 2.675781 6 6 6 h 12 c 3.324219 0 6 -2.675781 6 -6 v -4 c 0 3.324219 -2.675781 6 -6 6 h -12 c -3.324219 0 -6 -2.675781 -6 -6 z m 0 0"
     fill="url(#f)"
     id="path167" />
  <path
     d="m 80 34 v 4 c 0 3.324219 2.675781 6 6 6 h 12 c 3.324219 0 6 -2.675781 6 -6 v -4 c 0 3.324219 -2.675781 6 -6 6 h -12 c -3.324219 0 -6 -2.675781 -6 -6 z m 0 0"
     fill="url(#g)"
     id="path169" />
  <path
     d="m 24 34 v 4 c 0 3.324219 2.675781 6 6 6 h 12 c 3.324219 0 6 -2.675781 6 -6 v -4 c 0 3.324219 -2.675781 6 -6 6 h -12 c -3.324219 0 -6 -2.675781 -6 -6 z m 0 0"
     fill="url(#h)"
     id="path171" />
  <path
     d="m 52 90 v 4 c 0 3.324219 2.675781 6 6 6 h 12 c 3.324219 0 6 -2.675781 6 -6 v -4 c 0 3.324219 -2.675781 6 -6 6 h -12 c -3.324219 0 -6 -2.675781 -6 -6 z m 0 0"
     fill="url(#i)"
     id="path173" />
  <path
     d="m 80 90 v 4 c 0 3.324219 2.675781 6 6 6 h 12 c 3.324219 0 6 -2.675781 6 -6 v -4 c 0 3.324219 -2.675781 6 -6 6 h -12 c -3.324219 0 -6 -2.675781 -6 -6 z m 0 0"
     fill="url(#j)"
     id="path175" />
  <path
     d="m 24 90 v 4 c 0 3.324219 2.675781 6 6 6 h 12 c 3.324219 0 6 -2.675781 6 -6 v -4 c 0 3.324219 -2.675781 6 -6 6 h -12 c -3.324219 0 -6 -2.675781 -6 -6 z m 0 0"
     fill="url(#k)"
     id="path177" />
  <path
     d="m 31.800781 91 h 2.460938 l 1.625 -5.363281 h 0.027343 l 1.625 5.363281 h 2.460938 l 2.792969 -9.457031 h -2.867188 l -1.320312 5.902343 h -0.027344 l -1.546875 -5.902343 h -2.261719 l -1.546875 5.902343 h -0.027344 l -1.320312 -5.902343 h -2.867188 z m 0 0"
     fill="#ffffff"
     id="path179" />
  <path
     d="m 63.898438 91.152344 c 2.625 0 4.179687 -1.847656 4.179687 -4.875 c 0 -3.035156 -1.554687 -4.886719 -4.179687 -4.886719 c -2.621094 0 -4.175782 1.859375 -4.175782 4.886719 c 0 3.023437 1.554688 4.875 4.175782 4.875 z m 0 -2.03125 c -1.046876 0 -1.6875 -1.078125 -1.6875 -2.84375 c 0 -1.769532 0.640624 -2.855469 1.6875 -2.855469 c 1.050781 0 1.691406 1.085937 1.691406 2.855469 c 0 1.765625 -0.640625 2.84375 -1.691406 2.84375 z m 0 0"
     fill="#ffffff"
     id="path181" />
  <path
     d="m 87.800781 91 h 2.460938 l 1.625 -5.363281 h 0.027343 l 1.625 5.363281 h 2.460938 l 2.792969 -9.457031 h -2.867188 l -1.320312 5.902343 h -0.027344 l -1.546875 -5.902343 h -2.261719 l -1.546875 5.902343 h -0.027344 l -1.320312 -5.902343 h -2.867188 z m 0 0"
     fill="#ffffff"
     id="path183" />
</svg>
