<?xml version="1.0" encoding="UTF-8" standalone="no"?>
<!-- Created with Inkscape (http://www.inkscape.org/) -->

<svg
   width="512"
   height="256"
   viewBox="0 0 512 256"
   version="1.1"
   id="svg5"
   inkscape:version="1.2.2 (b0a8486541, 2022-12-01)"
   sodipodi:docname="lose.svg"
   inkscape:export-filename="lose.png"
   inkscape:export-xdpi="96"
   inkscape:export-ydpi="96"
   xml:space="preserve"
   xmlns:inkscape="http://www.inkscape.org/namespaces/inkscape"
   xmlns:sodipodi="http://sodipodi.sourceforge.net/DTD/sodipodi-0.dtd"
   xmlns:xlink="http://www.w3.org/1999/xlink"
   xmlns="http://www.w3.org/2000/svg"
   xmlns:svg="http://www.w3.org/2000/svg"><sodipodi:namedview
     id="namedview7"
     pagecolor="#ffffff"
     bordercolor="#000000"
     borderopacity="0.25"
     inkscape:showpageshadow="false"
     inkscape:pageopacity="0.0"
     inkscape:pagecheckerboard="true"
     inkscape:deskcolor="#a4a4a4"
     inkscape:document-units="px"
     showgrid="true"
     inkscape:zoom="1"
     inkscape:cx="452"
     inkscape:cy="-145"
     inkscape:window-width="2560"
     inkscape:window-height="1371"
     inkscape:window-x="0"
     inkscape:window-y="0"
     inkscape:window-maximized="1"
     inkscape:current-layer="layer2"
     showguides="false"><inkscape:grid
       type="xygrid"
       id="grid49363"
       empspacing="16"
       originx="0"
       originy="0" /></sodipodi:namedview><defs
     id="defs2"><inkscape:path-effect
       effect="fillet_chamfer"
       id="path-effect865"
       is_visible="true"
       lpeversion="1"
       nodesatellites_param="F,0,1,1,0,20.665413,0,1 @ F,0,1,1,0,20.665413,0,1 @ F,0,1,1,0,20.665413,0,1 @ F,0,1,1,0,20.665413,0,1 @ F,0,1,1,0,20.665413,0,1 @ F,0,1,1,0,20.665413,0,1 @ F,0,1,1,0,20.665413,0,1 @ F,0,1,1,0,20.665413,0,1 @ F,0,1,1,0,20.665413,0,1 @ F,0,1,1,0,20.665413,0,1 @ F,0,1,1,0,20.665413,0,1 @ F,0,1,1,0,20.665413,0,1 @ F,0,1,1,0,20.665413,0,1 @ F,0,1,1,0,20.665413,0,1 @ F,0,1,1,0,20.665413,0,1 @ F,0,1,1,0,20.665413,0,1 @ F,0,1,1,0,20.665413,0,1 @ F,0,1,1,0,20.665413,0,1 @ F,0,1,1,0,20.665413,0,1 @ F,0,1,1,0,20.665413,0,1 @ F,0,1,1,0,20.665413,0,1 @ F,0,1,1,0,20.665413,0,1 @ F,0,1,1,0,20.665413,0,1 @ F,0,0,1,0,20.665413,0,1"
       unit="px"
       method="auto"
       mode="F"
       radius="0"
       chamfer_steps="1"
       flexible="false"
       use_knot_distance="true"
       apply_no_radius="true"
       apply_with_radius="true"
       only_selected="false"
       hide_knots="false" /><inkscape:path-effect
       effect="fillet_chamfer"
       id="path-effect88133"
       is_visible="true"
       lpeversion="1"
       nodesatellites_param="F,0,0,1,0,32,0,1 @ F,0,1,1,0,32,0,1 @ F,0,1,1,0,32,0,1 @ F,0,1,1,0,32,0,1 @ F,0,1,1,0,32,0,1 @ F,0,1,1,0,32,0,1 @ F,0,1,1,0,32,0,1 @ F,0,1,1,0,32,0,1 @ F,0,1,1,0,32,0,1 @ F,0,1,1,0,32,0,1 @ F,0,1,1,0,32,0,1 @ F,0,1,1,0,32,0,1 @ F,0,1,1,0,32,0,1 @ F,0,1,1,0,32,0,1 @ F,0,1,1,0,32,0,1 @ F,0,1,1,0,32,0,1 @ F,0,1,1,0,32,0,1 @ F,0,1,1,0,32,0,1 @ F,0,1,1,0,32,0,1 @ F,0,1,1,0,32,0,1 @ F,0,1,1,0,32,0,1 @ F,0,1,1,0,32,0,1 @ F,0,1,1,0,32,0,1 @ F,0,1,1,0,32,0,1"
       unit="px"
       method="auto"
       mode="F"
       radius="0"
       chamfer_steps="1"
       flexible="false"
       use_knot_distance="true"
       apply_no_radius="true"
       apply_with_radius="true"
       only_selected="false"
       hide_knots="false" /><inkscape:path-effect
       effect="fillet_chamfer"
       id="path-effect87138"
       is_visible="true"
       lpeversion="1"
       nodesatellites_param="F,0,0,1,0,32,0,1 @ F,0,1,1,0,32,0,1 @ F,0,1,1,0,32,0,1 @ F,0,1,1,0,32,0,1 @ F,0,1,1,0,32,0,1 @ F,0,1,1,0,32,0,1 @ F,0,1,1,0,32,0,1 @ F,0,1,1,0,32,0,1 @ F,0,1,1,0,32,0,1 @ F,0,1,1,0,32,0,1 @ F,0,1,1,0,32,0,1 @ F,0,1,1,0,32,0,1 @ F,0,1,1,0,32,0,1 @ F,0,1,1,0,32,0,1 @ F,0,1,1,0,32,0,1 @ F,0,1,1,0,32,0,1 @ F,0,1,1,0,32,0,1 @ F,0,1,1,0,32,0,1 @ F,0,1,1,0,32,0,1 @ F,0,1,1,0,32,0,1 @ F,0,1,1,0,32,0,1 @ F,0,1,1,0,32,0,1 @ F,0,1,1,0,32,0,1 @ F,0,1,1,0,32,0,1"
       unit="px"
       method="auto"
       mode="F"
       radius="0"
       chamfer_steps="1"
       flexible="false"
       use_knot_distance="true"
       apply_no_radius="true"
       apply_with_radius="true"
       only_selected="false"
       hide_knots="false" /><inkscape:path-effect
       effect="fillet_chamfer"
       id="path-effect79255"
       is_visible="true"
       lpeversion="1"
       nodesatellites_param="F,0,0,1,0,32,0,1 @ F,0,1,1,0,32,0,1 @ F,0,1,1,0,32,0,1 @ F,0,1,1,0,32,0,1 @ F,0,1,1,0,32,0,1 @ F,0,1,1,0,32,0,1 @ F,0,1,1,0,32,0,1 @ F,0,1,1,0,32,0,1 @ F,0,1,1,0,32,0,1 @ F,0,1,1,0,32,0,1 @ F,0,1,1,0,32,0,1 @ F,0,1,1,0,32,0,1 @ F,0,1,1,0,32,0,1 @ F,0,1,1,0,32,0,1 @ F,0,1,1,0,32,0,1 @ F,0,1,1,0,32,0,1 @ F,0,1,1,0,32,0,1 @ F,0,1,1,0,32,0,1 @ F,0,1,1,0,32,0,1 @ F,0,1,1,0,32,0,1 @ F,0,1,1,0,32,0,1 @ F,0,1,1,0,32,0,1 @ F,0,1,1,0,32,0,1 @ F,0,1,1,0,32,0,1"
       unit="px"
       method="auto"
       mode="F"
       radius="0"
       chamfer_steps="1"
       flexible="false"
       use_knot_distance="true"
       apply_no_radius="true"
       apply_with_radius="true"
       only_selected="false"
       hide_knots="false" /><inkscape:path-effect
       effect="fillet_chamfer"
       id="path-effect74437"
       is_visible="true"
       lpeversion="1"
       nodesatellites_param="F,0,0,1,0,32,0,1 @ F,0,1,1,0,32,0,1 @ F,0,1,1,0,32,0,1 @ F,0,1,1,0,32,0,1 @ F,0,1,1,0,32,0,1 @ F,0,1,1,0,32,0,1 @ F,0,1,1,0,32,0,1 @ F,0,1,1,0,32,0,1 @ F,0,1,1,0,32,0,1 @ F,0,1,1,0,32,0,1 @ F,0,1,1,0,32,0,1 @ F,0,1,1,0,32,0,1 @ F,0,1,1,0,32,0,1 @ F,0,1,1,0,32,0,1 @ F,0,1,1,0,32,0,1 @ F,0,1,1,0,32,0,1 @ F,0,1,1,0,32,0,1 @ F,0,1,1,0,32,0,1 @ F,0,1,1,0,32,0,1 @ F,0,1,1,0,32,0,1 @ F,0,1,1,0,32,0,1 @ F,0,1,1,0,32,0,1 @ F,0,1,1,0,32,0,1 @ F,0,1,1,0,32,0,1"
       unit="px"
       method="auto"
       mode="F"
       radius="0"
       chamfer_steps="1"
       flexible="false"
       use_knot_distance="true"
       apply_no_radius="true"
       apply_with_radius="true"
       only_selected="false"
       hide_knots="false" /><inkscape:path-effect
       effect="fillet_chamfer"
       id="path-effect72158"
       is_visible="true"
       lpeversion="1"
       nodesatellites_param="F,0,0,1,0,32,0,1 @ F,0,1,1,0,32,0,1 @ F,0,1,1,0,32,0,1 @ F,0,1,1,0,32,0,1 @ F,0,1,1,0,32,0,1 @ F,0,1,1,0,32,0,1 @ F,0,1,1,0,32,0,1 @ F,0,1,1,0,32,0,1 @ F,0,1,1,0,32,0,1 @ F,0,1,1,0,32,0,1 @ F,0,1,1,0,32,0,1 @ F,0,1,1,0,32,0,1 @ F,0,1,1,0,32,0,1 @ F,0,1,1,0,32,0,1 @ F,0,1,1,0,32,0,1 @ F,0,1,1,0,32,0,1 @ F,0,1,1,0,32,0,1 @ F,0,1,1,0,32,0,1 @ F,0,1,1,0,32,0,1 @ F,0,1,1,0,32,0,1 @ F,0,1,1,0,32,0,1 @ F,0,1,1,0,32,0,1 @ F,0,1,1,0,32,0,1 @ F,0,1,1,0,32,0,1"
       unit="px"
       method="auto"
       mode="F"
       radius="0"
       chamfer_steps="1"
       flexible="false"
       use_knot_distance="true"
       apply_no_radius="true"
       apply_with_radius="true"
       only_selected="false"
       hide_knots="false" /><linearGradient
       inkscape:collect="always"
       id="linearGradient69439"><stop
         style="stop-color:#8c8b8b;stop-opacity:1;"
         offset="0"
         id="stop69435" /><stop
         style="stop-color:#737272;stop-opacity:1;"
         offset="1"
         id="stop69437" /></linearGradient><linearGradient
       inkscape:collect="always"
       id="linearGradient68641"><stop
         style="stop-color:#ff4e57;stop-opacity:1;"
         offset="0"
         id="stop68637" /><stop
         style="stop-color:#c22a30;stop-opacity:1;"
         offset="1"
         id="stop68639" /></linearGradient><linearGradient
       inkscape:collect="always"
       id="linearGradient67051"><stop
         style="stop-color:#70706f;stop-opacity:1;"
         offset="0"
         id="stop67041" /><stop
         style="stop-color:#545351;stop-opacity:1;"
         offset="0.04088745"
         id="stop67053" /><stop
         style="stop-color:#585754;stop-opacity:1;"
         offset="0.30000001"
         id="stop67043" /><stop
         style="stop-color:#72716d;stop-opacity:1;"
         offset="0.38000414"
         id="stop67045" /><stop
         style="stop-color:#5f5f5d;stop-opacity:1;"
         offset="0.50999999"
         id="stop67047" /><stop
         style="stop-color:#595854;stop-opacity:1;"
         offset="0.95099998"
         id="stop67055" /><stop
         style="stop-color:#747371;stop-opacity:1;"
         offset="1"
         id="stop67049" /></linearGradient><linearGradient
       inkscape:collect="always"
       id="linearGradient65585"><stop
         style="stop-color:#737272;stop-opacity:1;"
         offset="0"
         id="stop65575" /><stop
         style="stop-color:#545453;stop-opacity:1;"
         offset="0.0377018"
         id="stop67039" /><stop
         style="stop-color:#535353;stop-opacity:1;"
         offset="0.63199991"
         id="stop65577" /><stop
         style="stop-color:#7b7a78;stop-opacity:1;"
         offset="0.73699987"
         id="stop65579" /><stop
         style="stop-color:#636260;stop-opacity:1;"
         offset="0.84199989"
         id="stop65581" /><stop
         style="stop-color:#595754;stop-opacity:1;"
         offset="0.95775694"
         id="stop71673" /><stop
         style="stop-color:#767474;stop-opacity:1;"
         offset="1"
         id="stop65583" /></linearGradient><linearGradient
       inkscape:collect="always"
       id="linearGradient62645"><stop
         style="stop-color:#868683;stop-opacity:1;"
         offset="0"
         id="stop62641" /><stop
         style="stop-color:#585857;stop-opacity:1;"
         offset="0.04670283"
         id="stop67059" /><stop
         style="stop-color:#636360;stop-opacity:1;"
         offset="0.30000001"
         id="stop62649" /><stop
         style="stop-color:#807f7c;stop-opacity:1;"
         offset="0.36300001"
         id="stop62653" /><stop
         style="stop-color:#595957;stop-opacity:1;"
         offset="0.50999999"
         id="stop62651" /><stop
         style="stop-color:#5d5c5a;stop-opacity:1;"
         offset="0.9284814"
         id="stop67057" /><stop
         style="stop-color:#6d6c6a;stop-opacity:1;"
         offset="1"
         id="stop62643" /></linearGradient><inkscape:path-effect
       effect="fillet_chamfer"
       id="path-effect55318"
       is_visible="true"
       lpeversion="1"
       nodesatellites_param="F,0,0,1,0,0,0,1 @ F,0,0,1,0,0,0,1 @ F,0,0,1,0,0,0,1 @ F,0,0,1,0,0,0,1 @ F,0,1,1,0,8,0,1 @ F,0,0,1,0,8,0,1 @ F,0,0,1,0,0,0,1 @ F,0,0,1,0,0,0,1 @ F,0,0,1,0,0,0,1 @ F,0,0,1,0,0,0,1"
       unit="px"
       method="auto"
       mode="F"
       radius="0"
       chamfer_steps="1"
       flexible="false"
       use_knot_distance="true"
       apply_no_radius="true"
       apply_with_radius="true"
       only_selected="false"
       hide_knots="false" /><linearGradient
       inkscape:collect="always"
       id="linearGradient54957"><stop
         style="stop-color:#908f8c;stop-opacity:1;"
         offset="0"
         id="stop54953" /><stop
         style="stop-color:#b9b8b6;stop-opacity:1;"
         offset="1"
         id="stop54955" /></linearGradient><inkscape:path-effect
       effect="fillet_chamfer"
       id="path-effect54904"
       is_visible="true"
       lpeversion="1"
       nodesatellites_param="F,0,0,1,0,5,0,1 @ F,0,0,1,0,5,0,1 @ F,0,0,1,0,0,0,1 @ F,0,0,1,0,5.4204374,0,1 @ F,0,0,1,0,0,0,1"
       unit="px"
       method="auto"
       mode="F"
       radius="0"
       chamfer_steps="1"
       flexible="false"
       use_knot_distance="true"
       apply_no_radius="true"
       apply_with_radius="true"
       only_selected="false"
       hide_knots="false" /><inkscape:path-effect
       effect="fillet_chamfer"
       id="path-effect54880"
       is_visible="true"
       lpeversion="1"
       nodesatellites_param="F,0,0,1,0,0,0,1 @ F,0,0,1,0,0,0,1 @ F,0,0,1,0,0,0,1 @ F,0,0,1,0,0,0,1"
       unit="px"
       method="auto"
       mode="F"
       radius="0"
       chamfer_steps="1"
       flexible="false"
       use_knot_distance="true"
       apply_no_radius="true"
       apply_with_radius="true"
       only_selected="false"
       hide_knots="false" /><inkscape:path-effect
       effect="fillet_chamfer"
       id="path-effect53314"
       is_visible="true"
       lpeversion="1"
       nodesatellites_param="F,0,0,1,0,0,0,1 @ F,0,0,1,0,48,0,1 @ F,0,0,1,0,0,0,1 @ F,0,1,1,0,48,0,1 @ F,0,0,1,0,0,0,1"
       unit="px"
       method="auto"
       mode="F"
       radius="0"
       chamfer_steps="1"
       flexible="false"
       use_knot_distance="true"
       apply_no_radius="true"
       apply_with_radius="true"
       only_selected="false"
       hide_knots="false" /><inkscape:path-effect
       effect="fillet_chamfer"
       id="path-effect53245"
       is_visible="true"
       lpeversion="1"
       nodesatellites_param="F,0,0,1,0,62.481997,0,1 @ F,0,0,1,0,0,0,1 @ F,0,0,1,0,0,0,1"
       unit="px"
       method="auto"
       mode="F"
       radius="0"
       chamfer_steps="1"
       flexible="false"
       use_knot_distance="true"
       apply_no_radius="true"
       apply_with_radius="true"
       only_selected="false"
       hide_knots="false" /><inkscape:path-effect
       effect="fillet_chamfer"
       id="path-effect53241"
       is_visible="true"
       lpeversion="1"
       nodesatellites_param="F,0,0,1,0,62.481997,0,1 @ F,0,0,1,0,0,0,1 @ F,0,0,1,0,0,0,1"
       unit="px"
       method="auto"
       mode="F"
       radius="0"
       chamfer_steps="1"
       flexible="false"
       use_knot_distance="true"
       apply_no_radius="true"
       apply_with_radius="true"
       only_selected="false"
       hide_knots="false" /><inkscape:path-effect
       effect="fillet_chamfer"
       id="path-effect53237"
       is_visible="true"
       lpeversion="1"
       nodesatellites_param="F,0,0,1,0,62.481997,0,1 @ F,0,0,1,0,0,0,1 @ F,0,0,1,0,0,0,1"
       unit="px"
       method="auto"
       mode="F"
       radius="0"
       chamfer_steps="1"
       flexible="false"
       use_knot_distance="true"
       apply_no_radius="true"
       apply_with_radius="true"
       only_selected="false"
       hide_knots="false" /><inkscape:path-effect
       effect="fillet_chamfer"
       id="path-effect53233"
       is_visible="true"
       lpeversion="1"
       nodesatellites_param="F,0,0,1,0,0,0,1 @ F,0,0,1,0,282.72955,0,1 @ F,0,0,1,0,0,0,1"
       unit="px"
       method="auto"
       mode="F"
       radius="0"
       chamfer_steps="1"
       flexible="false"
       use_knot_distance="true"
       apply_no_radius="true"
       apply_with_radius="true"
       only_selected="false"
       hide_knots="false" /><inkscape:path-effect
       effect="fillet_chamfer"
       id="path-effect53204"
       is_visible="true"
       lpeversion="1"
       nodesatellites_param="F,0,0,1,0,0,0,1 @ F,0,0,1,0,282.72955,0,1 @ F,0,0,1,0,0,0,1"
       unit="px"
       method="auto"
       mode="F"
       radius="0"
       chamfer_steps="1"
       flexible="false"
       use_knot_distance="true"
       apply_no_radius="true"
       apply_with_radius="true"
       only_selected="false"
       hide_knots="false" /><inkscape:path-effect
       effect="fillet_chamfer"
       id="path-effect53146"
       is_visible="true"
       lpeversion="1"
       nodesatellites_param="F,0,0,1,0,51.224994,0,1 @ F,0,0,1,0,0,0,1 @ F,0,0,1,0,0,0,1"
       unit="px"
       method="auto"
       mode="F"
       radius="0"
       chamfer_steps="1"
       flexible="false"
       use_knot_distance="true"
       apply_no_radius="true"
       apply_with_radius="true"
       only_selected="false"
       hide_knots="false" /><inkscape:path-effect
       effect="fillet_chamfer"
       id="path-effect53140"
       is_visible="true"
       lpeversion="1"
       nodesatellites_param="F,0,0,1,0,62.481997,0,1 @ F,0,0,1,0,0,0,1 @ F,0,0,1,0,0,0,1"
       unit="px"
       method="auto"
       mode="F"
       radius="0"
       chamfer_steps="1"
       flexible="false"
       use_knot_distance="true"
       apply_no_radius="true"
       apply_with_radius="true"
       only_selected="false"
       hide_knots="false" /><inkscape:path-effect
       effect="fillet_chamfer"
       id="path-effect53134"
       is_visible="true"
       lpeversion="1"
       nodesatellites_param="F,0,0,1,0,62.481997,0,1 @ F,0,0,1,0,0,0,1 @ F,0,0,1,0,0,0,1"
       unit="px"
       method="auto"
       mode="F"
       radius="0"
       chamfer_steps="1"
       flexible="false"
       use_knot_distance="true"
       apply_no_radius="true"
       apply_with_radius="true"
       only_selected="false"
       hide_knots="false" /><inkscape:path-effect
       effect="fillet_chamfer"
       id="path-effect53128"
       is_visible="true"
       lpeversion="1"
       nodesatellites_param="F,0,0,1,0,62.481997,0,1 @ F,0,0,1,0,0,0,1 @ F,0,0,1,0,0,0,1"
       unit="px"
       method="auto"
       mode="F"
       radius="0"
       chamfer_steps="1"
       flexible="false"
       use_knot_distance="true"
       apply_no_radius="true"
       apply_with_radius="true"
       only_selected="false"
       hide_knots="false" /><linearGradient
       inkscape:collect="always"
       xlink:href="#linearGradient54957"
       id="linearGradient54959"
       x1="243.00002"
       y1="280"
       x2="252.99998"
       y2="280"
       gradientUnits="userSpaceOnUse"
       gradientTransform="matrix(0.63431217,0,0,0.63431217,100.70079,-18.022852)" /><linearGradient
       inkscape:collect="always"
       xlink:href="#linearGradient54957"
       id="linearGradient54967"
       x1="243.00003"
       y1="138.48148"
       x2="253.00002"
       y2="138.48148"
       gradientUnits="userSpaceOnUse"
       gradientTransform="matrix(0.63431217,0,0,0.63431217,100.70079,-18.022852)" /><inkscape:path-effect
       effect="fillet_chamfer"
       id="path-effect55131"
       is_visible="true"
       lpeversion="1"
       nodesatellites_param="F,0,1,1,0,8,0,1 @ F,0,0,1,0,0,0,1 @ F,0,0,1,0,0,0,1 @ F,0,0,1,0,0,0,1 @ F,0,0,1,0,0,0,1 @ F,0,0,1,0,0,0,1 @ F,0,0,1,0,0,0,1 @ F,0,0,1,0,0,0,1 @ F,0,0,1,0,0,0,1 @ F,0,0,1,0,0,0,1 @ F,0,0,1,0,0,0,1 @ F,0,0,1,0,8,0,1"
       unit="px"
       method="auto"
       mode="F"
       radius="0"
       chamfer_steps="1"
       flexible="false"
       use_knot_distance="true"
       apply_no_radius="true"
       apply_with_radius="true"
       only_selected="false"
       hide_knots="false" /><inkscape:path-effect
       effect="fillet_chamfer"
       id="path-effect55135"
       is_visible="true"
       lpeversion="1"
       nodesatellites_param="F,0,0,1,0,8,0,1 @ F,0,0,1,0,0,0,1 @ F,0,0,1,0,0,0,1 @ F,0,0,1,0,0,0,1 @ F,0,0,1,0,0,0,1 @ F,0,0,1,0,0,0,1 @ F,0,0,1,0,0,0,1 @ F,0,0,1,0,0,0,1 @ F,0,0,1,0,0,0,1 @ F,0,0,1,0,0,0,1 @ F,0,0,1,0,0,0,1 @ F,0,1,1,0,8,0,1"
       unit="px"
       method="auto"
       mode="F"
       radius="0"
       chamfer_steps="1"
       flexible="false"
       use_knot_distance="true"
       apply_no_radius="true"
       apply_with_radius="true"
       only_selected="false"
       hide_knots="false" /><radialGradient
       inkscape:collect="always"
       xlink:href="#linearGradient69439"
       id="radialGradient62548"
       cx="218.71059"
       cy="239.02795"
       fx="218.71059"
       fy="239.02795"
       r="21"
       gradientUnits="userSpaceOnUse"
       gradientTransform="matrix(1.6439857,-1.4282469e-8,1.4282469e-8,1.6439857,-134.85627,-212.5164)" /><radialGradient
       inkscape:collect="always"
       xlink:href="#linearGradient69439"
       id="radialGradient62631"
       cx="178.70413"
       cy="122.45689"
       fx="178.70413"
       fy="122.45689"
       r="21"
       gradientUnits="userSpaceOnUse"
       gradientTransform="matrix(1.5002001,-1.8042154e-8,1.8042154e-8,1.5002001,-83.545983,-143.76833)" /><radialGradient
       inkscape:collect="always"
       xlink:href="#linearGradient69439"
       id="radialGradient62639"
       cx="239.34827"
       cy="394.2735"
       fx="239.34827"
       fy="394.2735"
       r="21"
       gradientUnits="userSpaceOnUse"
       gradientTransform="matrix(1.2228859,-0.10344131,0.10344131,1.2228859,-85.169294,-174.22016)" /><linearGradient
       inkscape:collect="always"
       xlink:href="#linearGradient67051"
       id="linearGradient62647"
       x1="248.77058"
       y1="439.30057"
       x2="270.26025"
       y2="393.56015"
       gradientUnits="userSpaceOnUse"
       gradientTransform="matrix(0.57410777,-0.26972616,0.26972616,0.57410777,101.39755,-11.089032)" /><linearGradient
       inkscape:collect="always"
       xlink:href="#linearGradient62645"
       id="linearGradient62661"
       x1="213.37149"
       y1="209.224"
       x2="258.26004"
       y2="235.14041"
       gradientUnits="userSpaceOnUse"
       gradientTransform="matrix(0.54933045,-0.31715608,0.31715608,0.54933045,88.864158,-18.022852)" /><linearGradient
       inkscape:collect="always"
       xlink:href="#linearGradient65585"
       id="linearGradient65573"
       x1="139.79036"
       y1="112.94857"
       x2="186.0114"
       y2="100.56367"
       gradientUnits="userSpaceOnUse"
       gradientTransform="matrix(0.61269851,0.16417207,-0.16417207,0.61269851,78.532347,-18.022855)" /><radialGradient
       inkscape:collect="always"
       xlink:href="#linearGradient68641"
       id="radialGradient68645"
       cx="266.66058"
       cy="103.3692"
       fx="271.13037"
       fy="155.85413"
       r="120"
       gradientTransform="matrix(-0.84223653,0,0,-0.56547079,482.60151,134.12986)"
       gradientUnits="userSpaceOnUse" /></defs><g
     inkscape:label="Layer 1"
     inkscape:groupmode="layer"
     id="layer1"><path
       id="rect71781"
       style="fill:#deddda;fill-opacity:1;stroke-width:2.20798;stroke-linecap:square"
       d="M 39.629561,33.089544 A 20.301315,20.301315 43.962975 0 0 60.294974,53.02011 H 138.26149 A 20.665413,20.665413 45 0 1 158.9269,73.685523 20.301314,20.301314 136.03703 0 1 138.26149,93.616087 H 111.42241 A 20.665413,20.665413 135 0 0 90.756993,114.2815 20.301322,20.301322 43.962995 0 0 111.42241,134.21208 h 77.9665 a 20.665413,20.665413 45 0 1 20.66541,20.66541 20.30131,20.30131 136.03704 0 1 -20.66541,19.93056 H 85.858688 a 20.665413,20.665413 135 0 0 -20.665413,20.66541 20.301312,20.301312 43.962965 0 0 20.665413,19.93056 l 65.200402,1e-5 A 20.357832,20.357832 45.429585 0 1 171.41463,236.06712 20.001453,20.001453 44.383535 0 0 191.78112,256 h 136.07794 a 20.665413,20.665413 135 0 0 20.66541,-20.66541 20.301315,20.301315 136.03702 0 1 20.66541,-19.93057 h 92.8787 a 20.665413,20.665413 135 0 0 20.66541,-20.66541 20.30131,20.30131 43.962962 0 0 -20.66541,-19.93056 h -60.13159 a 20.665413,20.665413 45 0 1 -20.66541,-20.66541 20.30131,20.30131 136.03704 0 1 20.66541,-19.93056 H 445.0261 A 20.665413,20.665413 135 0 0 465.69151,113.54667 20.301322,20.301322 43.962995 0 0 445.0261,93.616087 l -116.65276,0 A 20.665413,20.665413 45 0 1 307.70793,72.950674 20.301314,20.301314 136.03703 0 1 328.37334,53.02011 h 82.5678 A 20.665413,20.665413 135 0 0 431.60655,32.354697 20.301315,20.301315 43.962975 0 0 410.94114,12.424131 H 60.294974 A 20.665413,20.665413 135 0 0 39.629561,33.089544 Z"
       sodipodi:nodetypes="ccccccccccccccccccccccccc" /><path
       id="rect77185"
       style="fill:#000000;fill-opacity:0.0687008;stroke-width:3.0088;stroke-linecap:square"
       d="m 258.01021,64.850541 c -1.7516,0 -3.17156,1.419955 -3.17156,3.171559 v 9.486194 c -0.612,-0.0067 -1.22404,-0.0067 -1.83604,0 -30.75092,1.835122 -58.03509,20.342895 -71.10986,48.236216 14.83365,-11.86692 35.91132,-11.86692 50.74497,0 1.59934,-1.2549 3.29064,-2.38795 5.05963,-3.3896 0.43362,-0.25091 0.87185,-0.49378 1.31446,-0.72848 3.58985,-1.90245 7.44482,-3.25551 11.43619,-4.014 0.50051,-0.0949 1.00277,-0.18042 1.5065,-0.25644 0.95818,-0.1156 1.92017,-0.19701 2.88415,-0.24407 v 79.67555 h -1.90294 v 22.22943 c 0,1.57643 -1.27795,2.85439 -2.8544,2.85439 -1.57644,0 -2.8544,-1.27796 -2.8544,-2.85439 v -0.70121 c 0,-2.80257 -2.27194,-5.0745 -5.0745,-5.0745 -2.63828,0 -4.8046,2.01354 -5.04972,4.5876 -0.016,0.16001 -0.0248,0.32251 -0.0248,0.4869 v 0.70121 c 0,4.03962 1.84136,7.64875 4.73133,10.03376 h 10e-4 c 0.32088,0.26478 0.65416,0.5148 0.99979,0.7483 h 0.001 c 0.51858,0.3503 1.06346,0.66531 1.63161,0.93908 h 0.001 c 0.94717,0.45628 1.95771,0.80192 3.01546,1.01836 h 0.001 c 0.21124,0.0432 0.42444,0.0811 0.63925,0.11392 h 0.001 c 0.6453,0.0984 1.30689,0.14991 1.97974,0.14991 5.83503,0 10.77226,-3.84354 12.41864,-9.13683 0.12666,-0.40716 0.23427,-0.82307 0.32088,-1.24632 0.1731,-0.84649 0.26377,-1.72255 0.26377,-2.62025 v -3.17155 -19.05787 h -1.90293 v -79.67549 c 0.96397,0.0471 1.92596,0.12847 2.88413,0.24407 0.50373,0.076 1.00598,0.16152 1.50649,0.25644 3.99137,0.75849 7.84634,2.11155 11.43619,4.014 0.44261,0.2347 0.88084,0.47757 1.31446,0.72848 1.76899,1.00165 3.46029,2.1347 5.05963,3.3896 14.83365,-11.86693 35.91134,-11.86693 50.74499,0 C 320.74619,97.288363 292.60352,78.678734 261.18043,77.508294 V 68.0221 c 0,-1.751605 -1.41995,-3.171562 -3.17156,-3.171559 z"
       sodipodi:nodetypes="cscccccccccccssssscssccccccccccsscscccccccccccscc" /><rect
       style="fill:url(#linearGradient54959);fill-opacity:1;stroke-width:3.0088;stroke-linecap:square"
       id="rect52939"
       width="6.3431067"
       height="91.34095"
       x="254.83867"
       y="113.91406" /><path
       id="path3565"
       style="fill:#000000;fill-opacity:0.0494679;stroke-width:1.26863;stroke-linecap:square"
       d="m 254.83789,109.91656 v 20.17383 h 6.34375 v -20.17383 z"
       sodipodi:nodetypes="ccccc" /><path
       id="path53202"
       style="fill:url(#radialGradient68645);fill-opacity:1;stroke-width:1.26863;stroke-linecap:square"
       d="m 253.00261,75.82685 a 84.065059,84.065059 0 0 0 -71.10986,48.23623 40.615795,40.615795 0 0 1 50.74497,0 40.615795,40.615795 0 0 1 50.74497,0 40.615795,40.615795 0 0 1 50.74498,0 84.065059,84.065059 0 0 0 -81.12506,-48.23623 z" /><path
       id="path53304"
       style="fill:#000000;fill-opacity:0.0986524;stroke-width:1.26863;stroke-linecap:square"
       d="m 257.7996,75.82685 -0.30105,0.211847 a 58.814215,58.814215 0 0 0 -24.86083,48.024383 40.615795,40.615795 0 0 1 50.74497,0 58.814215,58.814215 0 0 0 -24.86083,-48.024383 l -0.30104,-0.211847 a 84.065059,84.065059 0 0 0 -0.42122,0 z" /><path
       id="rect54878"
       d="m 258.01023,63.169106 a 3.1715545,3.1715545 0 0 1 3.17155,3.171561 v 9.514678 0 a 8.5392834,8.5392834 0 0 1 -6.34311,0 v -9.514678 a 3.1715607,3.1715607 0 0 1 3.17156,-3.171561 z"
       style="fill:url(#linearGradient54967);fill-opacity:1;stroke-width:1.12131;stroke-linecap:square"
       sodipodi:nodetypes="cccccc" /><path
       id="path54528"
       style="fill:#5e5c64;fill-opacity:1;stroke-width:5.20137;stroke-linecap:square"
       d="m 252.93571,195.10604 v 22.22942 c 0,1.57644 -1.27795,2.85441 -2.8544,2.85441 -1.57644,0 -2.8544,-1.27797 -2.8544,-2.85441 v -0.70122 c 0,-2.80256 -2.27194,-5.0745 -5.0745,-5.0745 -2.80258,0 -5.0745,2.27194 -5.0745,5.0745 v 0.70122 c 0,7.18158 5.82182,13.00341 13.0034,13.00341 7.18158,0 13.0034,-5.82183 13.0034,-13.00341 v -22.22942 z"
       sodipodi:nodetypes="cssssssssscc" /><path
       id="rect58783"
       style="fill:url(#linearGradient62661);stroke-width:1.66507;stroke-linecap:square"
       d="m 275.06974,21.825325 14.28259,-8.246057 c 2.43465,-1.405636 5.52625,-0.577238 6.9319,1.857394 l 8.24605,14.282592 c 0.37257,0.645313 0.70972,-0.866022 0.78007,-0.172018 0.19511,1.924302 0.82772,5.103283 -2.63747,7.103911 l -14.28257,8.246057 c -2.43464,1.405637 -5.52626,0.577236 -6.9319,-1.857392 l -8.24606,-14.282595 c -1.22444,-2.12079 -0.94042,-4.507057 -0.5631,-5.790732 0.35431,-1.20546 1.24143,-0.460429 2.42049,-1.14116 z"
       sodipodi:nodetypes="sssssssssss" /><rect
       style="fill:url(#radialGradient62548);fill-opacity:1;stroke-width:1.66507;stroke-linecap:square"
       id="rect55455"
       width="26.641109"
       height="26.641109"
       x="223.68626"
       y="154.10599"
       ry="5.0744972"
       rx="5.0744972"
       transform="rotate(-30)" /><path
       id="rect59511"
       style="fill:url(#linearGradient65573);stroke-width:1.66507;stroke-linecap:square"
       d="m 156.29763,59.129343 15.93016,4.26847 c 1.74204,0.466777 2.7767,-0.877812 3.28068,0.716982 0.2816,0.891164 1.28312,1.857095 0.30755,5.497983 l -4.26848,15.930154 c -0.72761,2.71549 -3.49949,4.315833 -6.21496,3.588211 l -15.93016,-4.268466 c -4.58797,-1.229337 -4.06888,-5.021674 -4.03398,-7.292874 0.006,-0.412063 0.33403,1.494906 0.44577,1.077913 l 4.26847,-15.930164 c 0.7276,-2.715479 3.49948,-4.315823 6.21495,-3.588209 z"
       sodipodi:nodetypes="sssssssssss" /><rect
       style="fill:url(#radialGradient62631);fill-opacity:1;stroke-width:1.66507;stroke-linecap:square"
       id="rect59513"
       width="26.641109"
       height="26.641109"
       x="160.23524"
       y="14.100962"
       ry="5.0744972"
       rx="5.0744972"
       transform="rotate(15)" /><path
       id="rect60350"
       style="fill:url(#linearGradient62647);stroke-width:1.66507;stroke-linecap:square"
       d="m 349.58185,149.43897 14.9268,-7.01289 c 0.53809,-0.25279 -1.59596,-0.54033 -1.03774,-0.59686 2.08142,-0.21074 6.04292,-0.68333 7.78841,3.03193 l 7.01288,14.92679 c 1.19543,2.54446 0.10942,5.55525 -2.43506,6.75067 l -14.9268,7.01289 c -2.75274,1.29328 -4.3518,0.41235 -5.27444,0.29561 -1.66424,-0.21056 -0.70717,-1.09373 -1.47623,-2.73067 l -7.01287,-14.9268 c -1.19544,-2.54444 -0.10943,-5.55524 2.43505,-6.75067 z"
       sodipodi:nodetypes="sssssssssss" /><rect
       style="fill:url(#radialGradient62639);fill-opacity:1;stroke-width:1.66507;stroke-linecap:square"
       id="rect60352"
       width="26.641109"
       height="26.641109"
       x="245.49197"
       y="282.64847"
       ry="5.0744972"
       rx="5.0744972"
       transform="rotate(-25.164982)" /><g
       aria-label="S"
       transform="matrix(0.54933044,-0.31715607,0.31715607,0.54933044,88.864161,-18.022852)"
       id="text68621"
       style="font-weight:800;font-size:32.6415px;line-height:1;font-family:Inter;-inkscape-font-specification:'Inter Ultra-Bold';text-align:center;text-anchor:middle;fill:#ffffff;stroke-width:4.45111;stroke-linecap:square"><path
         d="m 242.29783,213.1818 q -0.11592,-1.27506 -1.03164,-1.98214 -0.90413,-0.71867 -2.58489,-0.71867 -1.11278,0 -1.85463,0.28979 -0.74186,0.28978 -1.11278,0.79981 -0.37093,0.49843 -0.38252,1.14755 -0.0232,0.53321 0.20865,0.93891 0.24342,0.4057 0.69548,0.71867 0.46366,0.30137 1.11278,0.5332 0.64912,0.23183 1.46052,0.4057 l 2.0401,0.46366 q 1.7619,0.38252 3.1065,1.02005 1.3562,0.63753 2.27193,1.51848 0.92731,0.88095 1.40256,2.0285 0.47525,1.14755 0.48684,2.5733 -0.0116,2.24874 -1.13596,3.85995 -1.12437,1.61121 -3.23401,2.46898 -2.09805,0.85776 -5.06546,0.85776 -2.979,0 -5.19297,-0.89254 -2.21396,-0.89254 -3.44266,-2.7124 -1.22869,-1.81985 -1.26346,-4.6018 h 5.49434 q 0.0696,1.14755 0.61435,1.91259 0.54479,0.76503 1.49529,1.15914 0.96209,0.39411 2.22556,0.39411 1.15914,0 1.97054,-0.31297 0.823,-0.31297 1.26347,-0.86935 0.44048,-0.55639 0.45207,-1.27506 -0.0116,-0.67231 -0.41729,-1.14756 -0.40571,-0.48684 -1.25188,-0.83458 -0.83458,-0.35933 -2.13283,-0.66071 l -2.48056,-0.57957 q -3.08333,-0.70708 -4.85682,-2.28352 -1.77349,-1.58803 -1.7619,-4.28883 -0.0116,-2.20237 1.18233,-3.85995 1.19392,-1.65758 3.30356,-2.58489 2.10964,-0.92732 4.81045,-0.92732 2.75876,0 4.78726,0.93891 2.0401,0.92731 3.16447,2.60807 1.12437,1.68076 1.14755,3.89473 z"
         id="path68627"
         style="fill:#ffffff" /></g><g
       aria-label="L"
       transform="matrix(0.6126985,0.16417207,-0.16417207,0.6126985,78.53235,-18.022854)"
       id="text68625"
       style="font-weight:800;font-size:32.6415px;line-height:1;font-family:Inter;-inkscape-font-specification:'Inter Ultra-Bold';text-align:center;text-anchor:middle;fill:#ffffff;stroke-width:4.45111;stroke-linecap:square"><path
         d="M 153.57118,114.58865 V 90.849382 h 5.73776 v 19.079508 h 9.87591 v 4.65976 z"
         id="path68634"
         style="fill:#ffffff" /></g><text
       xml:space="preserve"
       style="font-style:normal;font-variant:normal;font-weight:800;font-stretch:normal;font-size:20.7049px;line-height:1;font-family:Inter;-inkscape-font-specification:'Inter Ultra-Bold';text-align:center;text-anchor:middle;fill:#ffffff;fill-opacity:1;stroke-width:2.8234;stroke-linecap:square"
       x="260.40103"
       y="301.64697"
       id="text68632"
       transform="rotate(-24.791085)"><tspan
         sodipodi:role="line"
         id="tspan68630"
         x="260.40103"
         y="301.64697"
         style="fill:#ffffff;stroke-width:2.8234">X</tspan></text><path
       id="path68652"
       style="fill:#000000;fill-opacity:0.156955;stroke-width:5.20137;stroke-linecap:square"
       d="m 263.08444,214.16389 c 0,7.18157 -5.82183,13.00341 -13.00339,13.00341 -6.66604,0 -12.15722,-5.01733 -12.91173,-11.48079 -0.0582,0.3075 -0.0918,0.62328 -0.0918,0.94773 v 0.70122 c 0,7.18157 5.82183,13.00341 13.00341,13.00341 7.18156,0 13.00339,-5.82184 13.00339,-13.00341 z" /></g><g
     inkscape:groupmode="layer"
     id="layer2"
     inkscape:label="rain"><path
       style="fill:none;fill-opacity:0.0752868;stroke:#9a9996;stroke-width:2;stroke-linecap:round;stroke-dasharray:none;stroke-opacity:1"
       d="M 391,21 V 44"
       id="path3350" /><path
       style="fill:none;fill-opacity:0.0752868;stroke:#9a9996;stroke-width:2;stroke-linecap:round;stroke-dasharray:none;stroke-opacity:1"
       d="M 227,1 V 24"
       id="path3352" /><path
       style="fill:none;fill-opacity:0.0752868;stroke:#9a9996;stroke-width:2;stroke-linecap:round;stroke-dasharray:none;stroke-opacity:1"
       d="M 111,36 V 59"
       id="path3354" /><path
       style="fill:none;fill-opacity:0.0752868;stroke:#9a9996;stroke-width:2;stroke-linecap:round;stroke-dasharray:none;stroke-opacity:1"
       d="m 52,100 v 23"
       id="path3356" /><path
       style="fill:none;fill-opacity:0.0752868;stroke:#9a9996;stroke-width:2;stroke-linecap:round;stroke-dasharray:none;stroke-opacity:1"
       d="m 143,164 v 23"
       id="path3358" /><path
       style="fill:none;fill-opacity:0.0752868;stroke:#9a9996;stroke-width:2;stroke-linecap:round;stroke-dasharray:none;stroke-opacity:1"
       d="m 111,114 v 23"
       id="path3360" /><path
       style="fill:none;fill-opacity:0.0752868;stroke:#9a9996;stroke-width:2;stroke-linecap:round;stroke-dasharray:none;stroke-opacity:1"
       d="m 83,149 v 23"
       id="path3362" /><path
       style="fill:none;fill-opacity:0.0752868;stroke:#9a9996;stroke-width:2;stroke-linecap:round;stroke-dasharray:none;stroke-opacity:1"
       d="m 408,161 v 23"
       id="path3364" /><path
       style="fill:none;fill-opacity:0.0752868;stroke:#9a9996;stroke-width:2;stroke-linecap:round;stroke-dasharray:none;stroke-opacity:1"
       d="m 455,124 v 23"
       id="path3366" /><path
       style="fill:none;fill-opacity:0.0752868;stroke:#9a9996;stroke-width:2;stroke-linecap:round;stroke-dasharray:none;stroke-opacity:1"
       d="M 417,82.999998 V 106"
       id="path3368" /><path
       style="fill:none;fill-opacity:0.0752868;stroke:#9a9996;stroke-width:2;stroke-linecap:round;stroke-dasharray:none;stroke-opacity:1"
       d="m 363,200 v 23"
       id="path3370" /><path
       style="fill:none;fill-opacity:0.0752868;stroke:#9a9996;stroke-width:2;stroke-linecap:round;stroke-dasharray:none;stroke-opacity:1"
       d="M 325,44 V 67"
       id="path3372" /><path
       style="fill:none;fill-opacity:0.0752868;stroke:#9a9996;stroke-width:2;stroke-linecap:round;stroke-dasharray:none;stroke-opacity:1"
       d="M 180,12 V 35"
       id="path1086" /></g></svg>
